<?xml version="1.0" encoding="UTF-8" standalone="no"?>
<svg width="424px" height="395px" viewBox="0 0 424 395" version="1.1" xmlns="http://www.w3.org/2000/svg" xmlns:xlink="http://www.w3.org/1999/xlink" xmlns:sketch="http://www.bohemiancoding.com/sketch/ns">
    <!-- Generator: Sketch 3.4.4 (17249) - http://www.bohemiancoding.com/sketch -->
    <title>Shape</title>
    <desc>Created with Sketch.</desc>
    <defs></defs>
    <g id="Page-1" stroke="none" stroke-width="1" fill="none" fill-rule="evenodd" sketch:type="MSPage">
        <g id="heart-icon" sketch:type="MSLayerGroup" transform="translate(20.000000, 20.000000)" stroke-width="20" stroke="#E54331" fill="#E54331">
            <g id="Page-1" sketch:type="MSShapeGroup">
                <g id="1453080410_icon-ios7-heart-outline">
                    <path d="M276.8,15.4 C327.5,15.4 368.7,56.7 368.7,107.7 C368.7,133.9 357.8,157.5 340.4,174.3 L192,324.1 L41,171.6 C25.2,155 15.4,132.5 15.4,107.7 C15.4,56.7 56.5,15.4 107.3,15.4 C145.5,15.4 178.2,38.8 192.1,72.2 C205.8,38.9 238.6,15.4 276.8,15.4 L276.8,15.4 L276.8,15.4 Z M276.8,0 C243,0 212,15.8 192,41.8 C172,15.8 141,0 107.2,0 C48.1,0 0,48.3 0,107.7 C0,135.6 10.6,162.1 29.9,182.3 L181.1,335 L192,346 L202.9,335 L351.2,185.2 C372.2,164.9 384,137.3 384,107.7 C384,48.3 335.9,0 276.8,0 L276.8,0 L276.8,0 L276.8,0 Z" id="Shape"></path>
                </g>
            </g>
        </g>
    </g>
</svg>